<?xml version="1.0" encoding="UTF-8" standalone="no"?><!DOCTYPE svg PUBLIC "-//W3C//DTD SVG 1.1//EN" "http://www.w3.org/Graphics/SVG/1.1/DTD/svg11.dtd"><svg width="100%" height="100%" viewBox="0 0 467 478" version="1.1" xmlns="http://www.w3.org/2000/svg" xmlns:xlink="http://www.w3.org/1999/xlink" xml:space="preserve" xmlns:serif="http://www.serif.com/" style="fill-rule:evenodd;clip-rule:evenodd;stroke-linecap:round;stroke-linejoin:round;stroke-miterlimit:1.5;"><g><rect x="81.63" y="100" width="73.438" height="73.438" style="fill:#e87a30;stroke:#e87a30;stroke-width:4.17px;"/><rect x="179.546" y="197.917" width="73.438" height="73.438" style="fill:#6e3916;stroke:#6e3916;stroke-width:4.17px;"/><rect x="277.463" y="100" width="73.438" height="73.438" style="fill:#c46728;stroke:#c46728;stroke-width:4.17px;"/><rect x="81.63" y="2.083" width="73.438" height="73.438" style="fill:#fff;stroke:#dfe1e4;stroke-width:4.17px;stroke-dasharray:8.33,8.33,8.33,0;"/><rect x="81.63" y="197.917" width="73.438" height="73.438" style="fill:#a15421;stroke:#a15421;stroke-width:4.17px;"/><rect x="179.546" y="2.083" width="73.438" height="73.438" style="fill:#ebedf0;stroke:#dfe1e4;stroke-width:4.17px;"/><rect x="277.463" y="2.083" width="73.438" height="73.438" style="fill:#e87a30;stroke:#e87a30;stroke-width:4.17px;"/><rect x="179.546" y="100" width="73.438" height="73.438" style="fill:#e87a30;stroke:#e87a30;stroke-width:4.17px;"/><path d="M3.357,472.572l45.593,0l0,3.296l-48.95,0l0,-88.867l3.357,-0l-0,85.571Z" style="fill:#898989;fill-rule:nonzero;"/><path d="M133.023,472.572l45.593,0l-0,3.296l-48.95,0l-0,-88.867l3.357,-0l-0,85.571Z" style="fill:#898989;fill-rule:nonzero;"/><path d="M318.292,438.087c-0,7.691 -1.374,14.496 -4.12,20.417c-2.747,5.92 -6.663,10.498 -11.75,13.732c-5.086,3.235 -10.945,4.853 -17.578,4.853c-10.009,-0 -18.107,-3.561 -24.292,-10.681c-6.185,-7.121 -9.277,-16.724 -9.277,-28.809l-0,-12.817c-0,-7.65 1.373,-14.445 4.12,-20.386c2.746,-5.941 6.673,-10.529 11.78,-13.764c5.106,-3.234 10.955,-4.852 17.547,-4.852c6.633,0 12.502,1.618 17.609,4.852c5.106,3.235 9.043,7.833 11.81,13.794c2.767,5.962 4.151,12.747 4.151,20.356l-0,13.305Zm-3.296,-13.427c-0,-10.743 -2.727,-19.359 -8.179,-25.849c-5.453,-6.49 -12.817,-9.735 -22.095,-9.735c-9.155,0 -16.459,3.225 -21.911,9.674c-5.453,6.45 -8.179,15.228 -8.179,26.337l-0,13c-0,7.08 1.231,13.336 3.693,18.769c2.461,5.432 5.971,9.613 10.528,12.542c4.557,2.93 9.888,4.395 15.991,4.395c9.278,-0 16.622,-3.235 22.034,-9.705c5.412,-6.469 8.118,-15.299 8.118,-26.489l-0,-12.939Z" style="fill:#898989;fill-rule:nonzero;"/><path d="M466.39,466.347c-2.238,3.092 -6.165,5.655 -11.78,7.69c-5.615,2.035 -11.8,3.052 -18.554,3.052c-6.592,-0 -12.472,-1.608 -17.64,-4.822c-5.167,-3.215 -9.206,-7.751 -12.115,-13.611c-2.909,-5.859 -4.405,-12.492 -4.486,-19.897l-0,-15.259c-0,-7.284 1.404,-13.814 4.211,-19.592c2.808,-5.778 6.755,-10.244 11.841,-13.398c5.086,-3.153 10.803,-4.73 17.151,-4.73c8.83,0 16.022,2.258 21.576,6.775c5.554,4.517 8.779,10.681 9.674,18.494l-3.296,-0c-1.099,-7.08 -4.049,-12.512 -8.85,-16.297c-4.802,-3.784 -11.17,-5.676 -19.104,-5.676c-8.952,0 -16.174,3.194 -21.668,9.583c-5.493,6.388 -8.239,14.79 -8.239,25.207l-0,14.16c-0,6.958 1.292,13.164 3.875,18.616c2.584,5.452 6.226,9.674 10.926,12.665c4.699,2.99 10.081,4.486 16.144,4.486c5.94,-0 11.454,-0.875 16.54,-2.625c5.086,-1.749 8.586,-3.865 10.498,-6.347l0,-25.879l-27.161,-0l0,-3.357l30.457,-0l-0,30.762Z" style="fill:#898989;fill-rule:nonzero;"/></g></svg>